<svg xmlns="http://www.w3.org/2000/svg" xmlns:xlink="http://www.w3.org/1999/xlink" width="28" height="28" viewBox="0 0 28 28"><defs><style>.a{fill:#6f68a3;}.b{clip-path:url(#a);}</style><clipPath id="a"><rect class="a" width="28" height="28"/></clipPath></defs><g class="b"><g transform="translate(-0.357)"><path class="a" d="M25.75,0H8.25A1.75,1.75,0,0,0,6.5,1.75v3.5h14A1.75,1.75,0,0,1,22.25,7V21h3.5a1.75,1.75,0,0,0,1.75-1.75V1.75A1.75,1.75,0,0,0,25.75,0Z" transform="translate(0.5 0)"/><path class="a" d="M19.25,6.5H1.75A1.75,1.75,0,0,0,0,8.25v17.5A1.75,1.75,0,0,0,1.75,27.5h17.5A1.75,1.75,0,0,0,21,25.75V8.25A1.75,1.75,0,0,0,19.25,6.5Zm-3.5,12.25h-3.5v3.5H8.75v-3.5H5.25v-3.5h3.5v-3.5h3.5v3.5h3.5v3.5Z" transform="translate(0 0.5)"/></g></g></svg>