<svg xmlns="http://www.w3.org/2000/svg" xmlns:xlink="http://www.w3.org/1999/xlink" width="29" height="28" viewBox="0 0 29 28"><defs><style>.a{fill:#6f68a3;}.b{clip-path:url(#a);}</style><clipPath id="a"><rect class="a" width="29" height="28" transform="translate(0.357)"/></clipPath></defs><g class="b" transform="translate(-0.357)"><g transform="translate(1)"><path class="a" d="M11.571,11.143h-2v4h-4v2h4v4h2v-4h4v-2h-4Z" transform="translate(0.429 0.857)"/><path class="a" d="M25,0H9A3,3,0,0,0,6,3V6H3A3,3,0,0,0,0,9V25a3,3,0,0,0,3,3H19a3,3,0,0,0,3-3V22h3a3,3,0,0,0,3-3V3a3,3,0,0,0-3-3ZM20,25a1,1,0,0,1-1,1H3a1,1,0,0,1-1-1V9A1,1,0,0,1,3,8H19a1,1,0,0,1,1,1Zm6-6a1,1,0,0,1-1,1H22V9a3,3,0,0,0-3-3H8V3A1,1,0,0,1,9,2H25a1,1,0,0,1,1,1V19Z"/></g></g></svg>